<?xml version="1.0" encoding="utf-8"?>
<!-- Generator: Adobe Illustrator 26.0.1, SVG Export Plug-In . SVG Version: 6.00 Build 0)  -->
<svg version="1.1" id="Laag_1" xmlns="http://www.w3.org/2000/svg" xmlns:xlink="http://www.w3.org/1999/xlink" x="0px" y="0px"
	 viewBox="0 0 812 812" style="enable-background:new 0 0 812 812;" xml:space="preserve">
<style type="text/css">
	.st0{fill:#FFFFFF;}
	.st1{fill:#E95F22;}
</style>
<path class="st0" d="M474.9,68.9L743,337.1c38.1,38.1,38.1,99.8,0,137.9L474.9,743c-38.1,38.1-99.8,38.1-137.9,0L68.9,474.9
	c-38.1-38.1-38.1-99.8,0-137.9L337.1,68.9C375.1,30.9,436.8,30.9,474.9,68.9z"/>
<path class="st1" d="M382.9,437.9c0.4-6.7-4.9-12.5-11.7-12.5h-60.6c-6.1,0-9.8-6.6-6.7-11.8l121-199.7c4.2-7,15-3.6,14.5,4.6
	l-10.2,155.6c-0.4,6.7,4.9,12.5,11.7,12.5h60.6c6.1,0,9.8,6.6,6.7,11.8L387.2,598c-4.2,7-15,3.6-14.4-4.5L382.9,437.9z"/>
<path class="st1" d="M168.1,401.5h75.5c5.1,0,9.3,4.1,9.3,9.3l0,0c0,5.1-4.1,9.3-9.3,9.3h-75.5c-5.1,0-9.3-4.1-9.3-9.3l0,0
	C158.9,405.7,163,401.5,168.1,401.5z"/>
<path class="st1" d="M190.5,333.6l65.2,37.7c4.5,2.6,6,8.4,3.4,12.9v0c-2.6,4.5-8.4,6-12.9,3.4l-65.2-37.7c-4.5-2.6-6-8.4-3.4-12.9
	h0C180.3,332.5,186,331,190.5,333.6z"/>
<path class="st1" d="M181.1,471.6l65.2-37.7c4.5-2.6,10.3-1.1,12.9,3.4v0c2.6,4.5,1.1,10.3-3.4,12.9l-65.2,37.7
	c-4.5,2.6-10.3,1.1-12.9-3.4l0,0C175.1,480,176.6,474.2,181.1,471.6z"/>
<path class="st1" d="M644.2,401.5h-75.5c-5.1,0-9.3,4.1-9.3,9.3l0,0c0,5.1,4.1,9.3,9.3,9.3h75.5c5.1,0,9.3-4.1,9.3-9.3l0,0
	C653.5,405.7,649.3,401.5,644.2,401.5z"/>
<path class="st1" d="M621.8,333.6l-65.2,37.7c-4.5,2.6-6,8.4-3.4,12.9l0,0c2.6,4.5,8.4,6,12.9,3.4l65.2-37.7c4.5-2.6,6-8.4,3.4-12.9
	l0,0C632,332.5,626.3,331,621.8,333.6z"/>
<path class="st1" d="M631.2,471.6L566,434c-4.5-2.6-10.3-1.1-12.9,3.4l0,0c-2.6,4.5-1.1,10.3,3.4,12.9l65.2,37.7
	c4.5,2.6,10.3,1.1,12.9-3.4l0,0C637.2,480,635.7,474.2,631.2,471.6z"/>
</svg>
